<svg xmlns="http://www.w3.org/2000/svg" width="543.5" height="466.373" viewBox="0 0 543.5 466.373">
  <g id="grafiskdesign" transform="translate(-105 -74)">
    <ellipse id="Ellipse_17" data-name="Ellipse 17" cx="65.5" cy="16.5" rx="65.5" ry="16.5" transform="matrix(0.978, 0.208, -0.208, 0.978, 118.102, 480.858)" fill="rgba(152,236,221,0.63)"/>
    <path id="Path_14" data-name="Path 14" d="M4666.766,657.428c-6.853-3.4-10.873-1.795-10.873-1.795s-6.853,10.186,0,13.582,28.646,5.186,27.411,0S4673.618,660.823,4666.766,657.428Z" transform="translate(-4540.491 578.198) rotate(-9)" fill="#474545"/>
    <path id="Path_15" data-name="Path 15" d="M4666.766,657.428c-6.853-3.4-10.873-1.795-10.873-1.795s-6.853,10.186,0,13.582,28.646,5.186,27.411,0S4673.618,660.823,4666.766,657.428Z" transform="translate(-4546.944 563.021) rotate(-9)" fill="#474545"/>
    <text id="O" transform="translate(262 339)" fill="#6cb4a6" font-size="142" font-family="SegoeUIBlack, Segoe UI"><tspan x="0" y="0">O</tspan></text>
    <text id="O-2" data-name="O" fill="none" stroke="#bef3e9" transform="translate(278 233)" stroke-width="2" stroke-dasharray="10 10" font-size="142" font-family="SegoeUIBlack, Segoe UI" opacity="0.78"><tspan x="0" y="0">O</tspan></text>
    <path id="Path_13" data-name="Path 13" d="M4718.873,570.3c10.262,31.623-31.442,131.114-31.442,131.114s-7.243,4.925-17.229,0c-6.45-3.181,6.723-29.428,13.434-63.08,2.568-17.978-6.643-30.194-7.9-41.659s36.216-23.854,43.14-26.375" transform="translate(-4565.281 521.547) rotate(-9)" fill="#3e3e3e"/>
    <path id="Path_16" data-name="Path 16" d="M15.174,14.549S0,11.525,0,9.322,15.174,5.736,15.174,5.736s5.113,1.95,1.029-2.312.829-4.03,2.685-2.092S22.6,8.061,22.6,8.061l-5.569,8.912Z" transform="translate(231.389 219.051) rotate(60)" fill="#ffb9a3"/>
    <g id="Ellipse_31" data-name="Ellipse 31" transform="translate(105 273)" fill="none" stroke="#bef3e9" stroke-width="2" stroke-dasharray="10 10">
      <circle cx="47" cy="47" r="47" stroke="none"/>
      <circle cx="47" cy="47" r="46" fill="none"/>
    </g>
    <path id="Path_12" data-name="Path 12" d="M1.739,133.3C-9.246,101.68,35.4,2.189,35.4,2.189s7.753-4.925,18.443,0c6.745,3.107-8.751,40.99-18.164,74.8C30.3,96.306,47.5,118.468,51.934,127.264,63.962,151.1,9.151,130.781,1.739,133.3" transform="matrix(-0.998, 0.07, -0.07, -0.998, 216.509, 498.993)" fill="#545557"/>
    <path id="Path_7" data-name="Path 7" d="M29.828,4.7S0,16.628,0,49.439s14.739,25.5,17.045,23.2S.994,48.445,35.3,18.12,29.828,4.7,29.828,4.7Z" transform="translate(222.167 315.111) rotate(-164)" fill="#146c88"/>
    <path id="Path_8" data-name="Path 8" d="M13.628.458S25.475,9.142,18.4,23.27,50.126,26.3,50.126,26.3,30.711,2.582,36.8.795,13.628.458,13.628.458Z" transform="translate(213.676 289.354) rotate(-178)" fill="#eeaf9b"/>
    <ellipse id="Ellipse_16" data-name="Ellipse 16" cx="23.435" cy="23.435" rx="23.435" ry="23.435" transform="translate(210.894 262.883) rotate(158)" fill="#ffb9a3"/>
    <path id="Path_9" data-name="Path 9" d="M23.4,14.849c12.943,0,23.467,23.863,23.467,10.09S36.378,0,23.435,0,0,11.165,0,24.939,10.46,14.849,23.4,14.849Z" transform="translate(149.34 262.496) rotate(-69)" fill="#785449"/>
    <text id="L" transform="translate(203 227)" fill="#2d534b" font-size="142" font-family="SegoeUIBlack, Segoe UI"><tspan x="0" y="0">L</tspan></text>
    <text id="GO" transform="translate(392 233)" fill="#6cb4a6" font-size="142" font-family="SegoeUIBlack, Segoe UI"><tspan x="0" y="0">GO</tspan></text>
    <path id="Path_55" data-name="Path 55" d="M5608.838,495.637c.789-1.052,1.852-4.574.308-4.508s-11.042,0-11.831,5S5602.007,491.693,5608.838,495.637Z" transform="translate(-5405 -241)" fill="#785449"/>
    <g id="h-arm">
      <path id="Path_10" data-name="Path 10" d="M17.9,2.859S0,6.427,0,9.027s17.9,4.231,17.9,4.231,6.033-2.3,1.214,2.727.978,4.755,3.168,2.469,4.379-7.939,4.379-7.939L20.094,0Z" transform="translate(285.924 338.326) rotate(-155)" fill="#ffb9a3"/>
      <path id="h-arm-2" data-name="h-arm" d="M-.925,10.891S0,21.478,0,63.86s11.479,30.1,11.479,30.1l6.868-.947S1.284,62.575,45.592,23.4-.925,10.891-.925,10.891Z" transform="matrix(0.017, -1, 1, 0.017, 174.213, 332.86)" fill="#1e90b4"/>
      <path id="Path_53" data-name="Path 53" d="M.175,5.815c-.882,2.923,1.814,9.292,2.651,11.172s4.745-.2,3.863-3.128S7.356,0,7.356,0,1.057,2.892.175,5.815Z" transform="translate(269.25 334.28) rotate(-173)" fill="#2aacd5"/>
    </g>
    <path id="Path_54" data-name="Path 54" d="M.272,12.579C-.828,10.51,1.717,4.4,2.473,1.6a2.087,2.087,0,1,1,4,1.185c-.882,2.8.357,12.542.357,12.542S1.372,14.647.272,12.579Z" transform="matrix(0.035, 0.999, -0.999, 0.035, 237.927, 238.553)" fill="#2aacd5"/>
    <g id="Polygon_1" data-name="Polygon 1" transform="translate(279.803 333.867) rotate(41)" fill="none" stroke-dasharray="10 10">
      <path d="M50,0l50,87H0Z" stroke="none"/>
      <path d="M 59.96567153930664 17.34028625488281 C 59.96567153930664 17.34028625488281 64.30812072753906 24.8961296081543 64.88538360595703 25.90056610107422 L 64.88578796386719 25.90126419067383 C 64.88687133789063 25.90316390991211 64.88785552978516 25.90486907958984 64.888916015625 25.90672302246094 L 64.88936614990234 25.90749359130859 C 64.88973236083984 25.90813064575195 64.89011383056641 25.90879821777344 64.89047241210938 25.90943145751953 L 64.89442443847656 25.91629791259766 C 64.89593505859375 25.91892242431641 64.89743041992188 25.9215202331543 64.89887237548828 25.92403793334961 L 64.89974975585938 25.92555999755859 C 64.90061950683594 25.92707061767578 64.90144348144531 25.92850494384766 64.90228271484375 25.92997741699219 L 64.90242004394531 25.93020248413086 C 64.9031982421875 25.93156051635742 64.9039306640625 25.93283462524414 64.90469360351563 25.93415832519531 L 64.90689086914063 25.9379997253418 C 64.90733337402344 25.93875122070313 64.90782165527344 25.93960952758789 64.90824890136719 25.94035339355469 L 64.90847778320313 25.94074630737305 C 64.90932464599609 25.94222259521484 64.91014099121094 25.94364547729492 64.91096496582031 25.9450798034668 L 64.91165161132813 25.94626998901367 C 64.91243743896484 25.94763946533203 64.91314697265625 25.94888305664063 64.91390991210938 25.95021057128906 L 64.91424560546875 25.95078277587891 C 64.91455078125 25.95132064819336 64.91485595703125 25.95184707641602 64.9151611328125 25.9523811340332 L 64.91574096679688 25.95338821411133 C 64.91590881347656 25.95367813110352 64.91600036621094 25.95383834838867 64.91616821289063 25.95412445068359 L 64.91716003417969 25.95585632324219 C 64.91780090332031 25.95698165893555 64.91849517822266 25.95818328857422 64.91912841796875 25.95927810668945 L 64.91929626464844 25.95957565307617 C 64.92161560058594 25.96361541748047 64.92384338378906 25.96749114990234 64.92589569091797 25.97106170654297 L 64.92750549316406 25.97385406494141 C 64.92779541015625 25.9743537902832 64.92805480957031 25.97481918334961 64.9283447265625 25.97531127929688 L 64.92856597900391 25.9757080078125 C 64.92875671386719 25.97604751586914 64.92898559570313 25.9764289855957 64.92917633056641 25.97676467895508 L 64.93124389648438 25.9803581237793 C 64.93134307861328 25.98053359985352 64.93149566650391 25.98080062866211 64.93159484863281 25.98097610473633 L 64.93616485595703 25.98892974853516 C 64.93635559082031 25.9892578125 64.93653106689453 25.98956680297852 64.93672180175781 25.98988723754883 L 64.93684387207031 25.99010467529297 C 64.93695831298828 25.99030685424805 64.93708801269531 25.99053573608398 64.93721008300781 25.99073791503906 L 64.93937683105469 25.9945182800293 C 64.93937683105469 25.9945182800293 64.93940734863281 25.99457931518555 64.93940734863281 25.99457931518555 L 64.94192504882813 25.99894714355469 C 64.94198608398438 25.99905776977539 64.94207763671875 25.99922180175781 64.942138671875 25.99932861328125 L 64.94851684570313 26.01041412353516 L 63.21448516845703 27.00698471069336 L 58.23164367675781 18.33684539794922 L 59.96567153930664 17.34028625488281 Z M 69.93135070800781 34.68055725097656 L 74.91419982910156 43.35070037841797 L 73.18017578125 44.34727096557617 L 68.19732666015625 35.67712783813477 L 69.93135833740234 34.68055725097656 Z M 79.89702606201172 52.02084350585938 C 79.89702606201172 52.02084350585938 82.08934020996094 55.83545684814453 83.56562805175781 58.40419387817383 L 83.57140350341797 58.41423797607422 C 83.57954406738281 58.42840194702148 83.58769989013672 58.44259643554688 83.59579467773438 58.45668029785156 L 83.59758758544922 58.45980834960938 C 83.59907531738281 58.46238708496094 83.60027313232422 58.4644775390625 83.60176086425781 58.46705627441406 L 83.60523986816406 58.47311401367188 C 83.60591125488281 58.47428131103516 83.60669708251953 58.47565460205078 83.60737609863281 58.47682952880859 L 84.87986755371094 60.69097137451172 L 83.14584350585938 61.68754196166992 L 78.16300201416016 53.01739883422852 L 79.89702606201172 52.02084350585938 Z M 89.86270904541016 69.36111450195313 L 91.83534240722656 72.79349517822266 C 91.83578491210938 72.79427337646484 91.83605194091797 72.79473114013672 91.83650207519531 72.79551696777344 L 91.84236907958984 72.80571746826172 C 91.84266662597656 72.80623626708984 91.84273529052734 72.80636596679688 91.84303283691406 72.806884765625 L 91.8492431640625 72.81768035888672 C 91.84999084472656 72.81898498535156 91.85078430175781 72.82035827636719 91.85152435302734 72.8216552734375 L 91.85515594482422 72.82797241210938 C 91.856201171875 72.82978820800781 91.85735321044922 72.83179473876953 91.8583984375 72.83361053466797 L 91.86638641357422 72.84751892089844 C 93.25129699707031 75.25726318359375 94.84554290771484 78.03125762939453 94.84554290771484 78.03125762939453 L 93.11151123046875 79.02783203125 L 88.12868499755859 70.35768127441406 L 89.86271667480469 69.36111450195313 Z M 90.34439849853516 85 L 98.85057830810547 85 L 100 87 C 100 87 100 87 100 87 C 100 87 100 87 100 87 L 100 87 L 100 87 L 100 87 C 100 87 100 87 100 87 L 100 87 L 100 87 L 99.30881500244141 87 L 99.30881500244141 87 C 97.09838104248047 87 90.34439849853516 87 90.34439849853516 87 L 90.34439849853516 85 Z M 70.34439849853516 85 L 80.34439849853516 85 L 80.34439849853516 87 C 80.34439849853516 87 70.34439849853516 87 70.34439849853516 87 L 70.34439849853516 85 Z M 50.34439849853516 85 L 60.34439849853516 85 L 60.34439849853516 87 C 60.34439849853516 87 50.34439849853516 87 50.34439849853516 87 L 50.34439849853516 85 Z M 30.34439849853516 85 L 40.34439849853516 85 L 40.34439849853516 87 C 40.34439849853516 87 30.34439849853516 87 30.34439849853516 87 L 30.34439849853516 85 Z M 10.34439849853516 85 L 20.34439849853516 85 L 20.34439849853516 87 C 20.34439849853516 87 10.34439849853516 87 10.34439849853516 87 L 10.34439849853516 85 Z M 4.811225891113281 78.62847137451172 L 6.545257568359375 79.62503051757813 L 2.306770324707031 87 L 0 87 L 0 87 C 0 87 0 87 0 87 L 0 87 L 0 87 L 0 87 C 0 87 0 87 0 87 L 0.3443984985351563 86.40074157714844 L 0.3443984985351563 86.40074157714844 C 1.445823669433594 84.48426818847656 4.811225891113281 78.62847137451172 4.811225891113281 78.62847137451172 Z M 14.77690124511719 61.28818511962891 L 16.51092529296875 62.28475952148438 L 11.52809906005859 70.95490264892578 L 9.794075012207031 69.95832824707031 C 9.794075012207031 69.95832824707031 11.43531799316406 67.10255432128906 12.83393096923828 64.66896057128906 L 12.8966064453125 64.55989837646484 C 12.8966064453125 64.55989837646484 12.89673614501953 64.55967712402344 12.89673614501953 64.55967712402344 L 14.77690124511719 61.28818511962891 Z M 24.74258422851563 43.94791412353516 L 26.47661590576172 44.94447326660156 L 21.4937744140625 53.6146125793457 L 19.75974273681641 52.6180419921875 L 20.97946166992188 50.49574279785156 C 22.45465087890625 47.92891693115234 24.74258422851563 43.94791412353516 24.74258422851563 43.94791412353516 Z M 34.70825958251953 26.60762786865234 L 36.44228744506836 27.60419845581055 L 31.45944213867188 36.27434158325195 L 29.72541809082031 35.27777099609375 L 34.70825958251953 26.60762786865234 Z M 44.67394256591797 9.267356872558594 L 46.4079704284668 10.263916015625 L 41.42512893676758 18.93405914306641 L 39.69110107421875 17.93748474121094 L 39.69112396240234 17.93744659423828 C 39.69112777709961 17.93743896484375 39.69113159179688 17.93743133544922 39.69113922119141 17.93741607666016 L 39.69116973876953 17.93736267089844 C 39.69120407104492 17.93730163574219 39.69124984741211 17.93722534179688 39.69130706787109 17.93712615966797 L 39.69134140014648 17.93706512451172 C 39.6914176940918 17.93693542480469 39.69150161743164 17.93679046630859 39.69160842895508 17.93660736083984 L 39.69166564941406 17.93650054931641 C 39.69168853759766 17.93646240234375 39.69171142578125 17.93642425537109 39.69173431396484 17.93637847900391 L 39.69182586669922 17.93622589111328 C 39.69185256958008 17.93617248535156 39.69188690185547 17.93611907958984 39.69191741943359 17.93606567382813 L 39.69225311279297 17.93547821044922 C 39.69233322143555 17.93534088134766 39.69240951538086 17.93520355224609 39.69249725341797 17.93505859375 L 39.69255065917969 17.93495941162109 C 39.69271087646484 17.93467712402344 39.69287872314453 17.93439483642578 39.69306564331055 17.93406677246094 L 39.69322204589844 17.93379211425781 C 39.6936149597168 17.93310546875 39.69406127929688 17.93233489990234 39.69456481933594 17.93145751953125 L 39.69486999511719 17.93092346191406 C 39.69542694091797 17.92996215820313 39.69603729248047 17.92890167236328 39.69671249389648 17.92771911621094 L 39.69674682617188 17.92766571044922 C 39.69894790649414 17.92383575439453 39.70177459716797 17.91891479492188 39.70523452758789 17.91289520263672 L 39.7056884765625 17.91210174560547 C 40.00062561035156 17.39891052246094 44.67394256591797 9.267356872558594 44.67394256591797 9.267356872558594 Z M 50 0 L 54.98284149169922 8.670143127441406 L 53.24881362915039 9.666717529296875 L 48.84661483764648 2.006889343261719 L 50 0 Z" stroke="none" fill="#bef3e9"/>
    </g>
    <g id="Group_13" data-name="Group 13" transform="translate(-138.569 -504.706) rotate(17)">
      <path id="Path_57" data-name="Path 57" d="M6697.754,648.858s152.288-123.322,149.359,0" transform="translate(-5960)" fill="none" stroke="#bef3e9" stroke-width="1"/>
      <circle id="Ellipse_34" data-name="Ellipse 34" cx="6" cy="6" r="6" transform="translate(881 646)" fill="#6cb4a6"/>
      <line id="Line_17" data-name="Line 17" y2="206" transform="translate(887.5 540.5)" fill="none" stroke="#6cb4a6" stroke-width="1"/>
      <g id="Ellipse_35" data-name="Ellipse 35" transform="translate(882 530)" fill="#fff" stroke="#6cb4a6" stroke-width="1">
        <circle cx="5.5" cy="5.5" r="5.5" stroke="none"/>
        <circle cx="5.5" cy="5.5" r="5" fill="none"/>
      </g>
      <g id="Ellipse_36" data-name="Ellipse 36" transform="translate(882 747)" fill="#fff" stroke="#6cb4a6" stroke-width="1">
        <circle cx="5.5" cy="5.5" r="5.5" stroke="none"/>
        <circle cx="5.5" cy="5.5" r="5" fill="none"/>
      </g>
      <circle id="Ellipse_33" data-name="Ellipse 33" cx="6" cy="6" r="6" transform="translate(732.372 643.795)" fill="#6cb4a6"/>
    </g>
    <path id="kropp" d="M2941.74,770.749c10.14,4.594,81.127,25.425,72.715,5.8s1.47-89.11-8.329-102.292-31.354-8.436-38.213,4.218S2961.385,730.647,2941.74,770.749Z" transform="translate(-2802.159 -390.924)" fill="#1e90b4"/>
    <path id="Path_52" data-name="Path 52" d="M10.083,7.884C15.313,9.867,29.031,10.8,29.031,10.8s2.452-3.068,1.52-3.751S0,0,0,0,4.854,5.9,10.083,7.884Z" transform="matrix(-0.951, 0.309, -0.309, -0.951, 202.963, 278.417)" fill="#2aacd5"/>
    <text id="t" transform="matrix(0.914, -0.407, 0.407, 0.914, 399.11, 420.566)" fill="#bef3e9" font-size="61" font-family="TimesNewRomanPS-BoldMT, Times New Roman" font-weight="700"><tspan x="0" y="0">T</tspan></text>
    <line id="Line_18" data-name="Line 18" x2="491" transform="translate(157.5 125.5)" fill="none" stroke="#bef3e9" stroke-width="1" opacity="0.35"/>
    <line id="Line_19" data-name="Line 19" y2="367" transform="translate(604.5 77.5)" fill="none" stroke="#bef3e9" stroke-width="1" opacity="0.52"/>
  </g>
</svg>
