<svg xmlns="http://www.w3.org/2000/svg" width="688.966" height="584.965" viewBox="0 0 688.966 584.965">
  <g id="Group_15" data-name="Group 15" transform="translate(-976.971 -121.035)">
    <text id="_" data-name="}" transform="matrix(0.951, 0.309, -0.309, 0.951, 1592.358, 507.821)" fill="#78afa5" font-size="107" font-family="SegoeUI-Bold, Segoe UI" font-weight="700"><tspan x="0" y="0">}</tspan></text>
    <g id="Group_4" data-name="Group 4" transform="translate(838 17)">
      <g id="Rectangle_18" data-name="Rectangle 18" transform="translate(265 246)" fill="none" stroke="#1aa58c" stroke-width="3" stroke-dasharray="10">
        <rect width="387" height="38" rx="19" stroke="none"/>
        <rect x="1.5" y="1.5" width="384" height="35" rx="17.5" fill="none"/>
      </g>
      <rect id="Rectangle_16" data-name="Rectangle 16" width="387.893" height="228.426" rx="60" transform="matrix(0.966, 0.259, -0.259, 0.966, 373.36, 104.035)" fill="#52d1bb" opacity="0.31"/>
      <g id="Rectangle_17" data-name="Rectangle 17" transform="translate(265 311)" fill="none" stroke="#30ffda" stroke-width="3" stroke-dasharray="10">
        <rect width="388" height="228" rx="21" stroke="none"/>
        <rect x="1.5" y="1.5" width="385" height="225" rx="19.5" fill="none"/>
      </g>
      <ellipse id="Ellipse_17" data-name="Ellipse 17" cx="65.5" cy="16.5" rx="65.5" ry="16.5" transform="translate(696 656)" fill="rgba(152,236,221,0.63)"/>
      <path id="Path_14" data-name="Path 14" d="M4669.436,657.428c6.853-3.4,10.873-1.795,10.873-1.795s6.853,10.186,0,13.582-28.646,5.186-27.411,0S4662.583,660.823,4669.436,657.428Z" transform="translate(-3903 1)" fill="#474545"/>
      <path id="Path_15" data-name="Path 15" d="M4669.436,657.428c6.853-3.4,10.873-1.795,10.873-1.795s6.853,10.186,0,13.582-28.646,5.186-27.411,0S4662.583,660.823,4669.436,657.428Z" transform="translate(-3899 -15)" fill="#474545"/>
      <path id="Path_13" data-name="Path 13" d="M4670.1,570.3c-10.262,31.623,31.442,131.114,31.442,131.114s7.243,4.925,17.229,0c6.45-3.181-6.723-29.428-13.434-63.08-2.568-17.978,6.643-30.194,7.9-41.659s-36.216-23.854-43.14-26.375" transform="translate(-3939 -58)" fill="#3e3e3e"/>
      <path id="Path_16" data-name="Path 16" d="M15.174,2.424S0,5.447,0,7.651s15.174,3.586,15.174,3.586,5.113-1.95,1.029,2.312.829,4.03,2.685,2.092S22.6,8.912,22.6,8.912L17.031,0Z" transform="translate(694.31 399.538) rotate(120)" fill="#ffb9a3"/>
      <path id="Path_12" data-name="Path 12" d="M4670.211,570.3c-10.985,31.623,33.657,131.114,33.657,131.114s7.753,4.925,18.443,0c6.745-3.107-8.751-40.99-18.164-74.8-5.377-19.317,11.819-41.478,16.257-50.275,12.028-23.839-42.782-3.517-50.194-6.038" transform="matrix(0.996, -0.087, 0.087, 0.996, -3988.508, 373.72)" fill="#545557"/>
      <path id="Path_7" data-name="Path 7" d="M29.828,70.079S0,58.148,0,25.337,11.224,4.031,16.6,3.656c2.306,2.3-15.6,22.675,18.7,53S29.828,70.079,29.828,70.079Z" transform="translate(669.222 414.231) rotate(-16)" fill="#146c88"/>
      <path id="Path_8" data-name="Path 8" d="M0,29.647S25.475,21.3,18.4,7.172,50.126,4.146,50.126,4.146,30.711,27.859,36.8,29.647,0,29.647,0,29.647Z" transform="matrix(0.985, -0.174, 0.174, 0.985, 700.608, 423.576)" fill="#eeaf9b"/>
      <path id="Path_5" data-name="Path 5" d="M3015.146,770.749c-10.14,4.594-81.127,25.425-72.715,5.8s-1.47-89.11,8.329-102.292,31.354-8.436,38.213,4.218S2995.5,730.647,3015.146,770.749Z" transform="translate(-2239.159 -231.924)" fill="#1e90b4"/>
      <path id="Path_10" data-name="Path 10" d="M15.521,20.626s-17.9-3.568-17.9-6.167,17.9-4.231,17.9-4.231,6.033,2.3,1.214-2.727.978-4.755,3.168-2.469,4.379,7.939,4.379,7.939L17.711,23.486Z" transform="translate(629.967 394.679) rotate(20)" fill="#ffb9a3"/>
      <path id="Path_6" data-name="Path 6" d="M38.529,90.207S0,74.8,0,32.415,11.559.95,11.559.95l6.788,2.308S1.284,33.7,45.592,72.87,38.529,90.207,38.529,90.207Z" transform="matrix(0.695, -0.719, 0.719, 0.695, 633.298, 424.181)" fill="#1e90b4"/>
      <ellipse id="Ellipse_16" data-name="Ellipse 16" cx="23.435" cy="23.435" rx="23.435" ry="23.435" transform="translate(721.664 378.425) rotate(22)" fill="#ffb9a3"/>
      <path id="Path_9" data-name="Path 9" d="M23.4,14.371c12.943,0,23.467-23.863,23.467-10.09S36.378,29.22,23.435,29.22,0,18.055,0,4.282,10.46,14.371,23.4,14.371Z" transform="matrix(-0.53, -0.848, 0.848, -0.53, 742.651, 431.469)" fill="#785449"/>
      <rect id="Rectangle_19" data-name="Rectangle 19" width="387" height="32" rx="16" transform="translate(265 564)" fill="#91d8cb"/>
      <rect id="Rectangle_20" data-name="Rectangle 20" width="387" height="32" rx="16" transform="translate(265 605)" fill="#91d8cb"/>
      <rect id="Rectangle_21" data-name="Rectangle 21" width="387" height="32" rx="16" transform="translate(265 646)" fill="#91d8cb"/>
    </g>
    <path id="Path_52" data-name="Path 52" d="M5590.233,462.29c5.229-1.983,18.948-2.921,18.948-2.921s2.452,3.068,1.52,3.751-30.551,7.053-30.551,7.053S5585,464.274,5590.233,462.29Z" transform="translate(-3780.897 -1256.548) rotate(13)" fill="#2aacd5"/>
    <path id="Path_53" data-name="Path 53" d="M5594.6,483.351c-.882-2.923,1.814-9.292,2.651-11.172s4.745.2,3.863,3.128.667,13.859.667,13.859S5595.478,486.275,5594.6,483.351Z" transform="translate(-1669.067 -4216.767) rotate(51)" fill="#2aacd5"/>
    <path id="Path_54" data-name="Path 54" d="M-.331,2.75c-1.1,2.069,1.445,8.175,2.2,10.978a2.087,2.087,0,1,0,4-1.185C4.985,9.739,6.224,0,6.224,0S.769.681-.331,2.75Z" transform="matrix(-0.035, 0.999, -0.999, -0.035, 1526.707, 429.691)" fill="#2aacd5"/>
    <path id="Path_55" data-name="Path 55" d="M5598.336,495.637c-.789-1.052-1.852-4.574-.308-4.508s11.042,0,11.831,5S5605.167,491.693,5598.336,495.637Z" transform="translate(-4049 -62)" fill="#785449"/>
    <text id="_2" data-name="&lt;" transform="translate(982.886 306.649) rotate(11)" fill="#c9f1ea" font-size="125" font-family="SegoeUI-Bold, Segoe UI" font-weight="700"><tspan x="0" y="0">&lt;</tspan></text>
    <text id="_3" data-name="/&gt;" transform="translate(1585 360)" fill="#c9f1ea" font-size="69" font-family="SegoeUI-Bold, Segoe UI" font-weight="700"><tspan x="0" y="0">/&gt;</tspan></text>
    <text id="_4" data-name=";" transform="translate(1498 625)" fill="#78afa5" font-size="97" font-family="SegoeUI-Bold, Segoe UI" font-weight="700"><tspan x="0" y="0">;</tspan></text>
    <text id="_5" data-name="{" transform="translate(1038 491)" fill="#78afa5" font-size="113" font-family="SegoeUI-Bold, Segoe UI" font-weight="700"><tspan x="0" y="0">{</tspan></text>
  </g>
</svg>
