<svg xmlns="http://www.w3.org/2000/svg" width="584" height="484.122" viewBox="0 0 584 484.122">
  <g id="ux" transform="translate(-1204 -472.878)">
    <path id="Path_8" data-name="Path 8" d="M0,.667s14.21,10.416,5.722,27.36,38.054,3.629,38.054,3.629S20.49,3.214,27.79,1.07,0,.667,0,.667Z" transform="translate(1421.343 556.401) rotate(-167)" fill="#eeaf9b"/>
    <ellipse id="Ellipse_16" data-name="Ellipse 16" cx="28.108" cy="28.108" rx="28.108" ry="28.108" transform="translate(1440.773 525.002) rotate(158)" fill="#ffb9a3"/>
    <path id="Path_9" data-name="Path 9" d="M28.627,17.81c4.983,0,16.016-3.825,16.016-3.825S56.773,41.129,56.773,29.912C56.773,13.392,44.189,0,28.665,0S0,13.215,0,29.735c0,11.58,13.723-16.83,13.723-16.83S23.985,17.81,28.627,17.81Z" transform="translate(1374.913 479.668) rotate(-2)" fill="#785449"/>
    <path id="kropp" d="M2938.74,851.52c14.9,6.752,121.96-23.861,109.6-52.707s-.411-98.943-14.813-118.318a30.754,30.754,0,0,0-51.9,3.059C2971.54,702.155,2967.616,792.575,2938.74,851.52Z" transform="translate(-1597.159 -124.998)" fill="#1e90b4"/>
    <path id="Path_3" data-name="Path 3" d="M15.043,0H55.459L70.533,40.107H0Z" transform="translate(1385.174 906.069)" fill="#7ebeb2"/>
    <g id="Rectangle_3" data-name="Rectangle 3" transform="translate(1204 635)" fill="#91d8cb" stroke="#91d8cb" stroke-width="3">
      <rect width="426" height="274" rx="25" stroke="none"/>
      <rect x="1.5" y="1.5" width="423" height="271" rx="23.5" fill="none"/>
    </g>
    <g id="Rectangle_28" data-name="Rectangle 28" transform="translate(1788 735) rotate(90)" fill="#91d8cb" stroke="#91d8cb" stroke-width="5">
      <rect width="222" height="139" rx="7" stroke="none"/>
      <rect x="2.5" y="2.5" width="217" height="134" rx="4.5" fill="none"/>
    </g>
    <g id="Rectangle_27" data-name="Rectangle 27" transform="translate(1215 645)" fill="#f1f1f1" stroke="#91d8cb" stroke-width="3">
      <rect width="405" height="244" rx="25" stroke="none"/>
      <rect x="1.5" y="1.5" width="402" height="241" rx="23.5" fill="none"/>
    </g>
    <g id="Rectangle_29" data-name="Rectangle 29" transform="translate(1787 738) rotate(90)" fill="#f1f1f1" stroke="#91d8cb" stroke-width="3">
      <rect width="208" height="136" rx="9" stroke="none"/>
      <rect x="1.5" y="1.5" width="205" height="133" rx="7.5" fill="none"/>
    </g>
    <g id="Rectangle_6" data-name="Rectangle 6" transform="translate(1327 942)" fill="#91d8cb" stroke="#91d8cb" stroke-width="2">
      <rect width="195" height="15" rx="5" stroke="none"/>
      <rect x="1" y="1" width="193" height="13" rx="4" fill="none"/>
    </g>
    <rect id="Rectangle_24" data-name="Rectangle 24" width="159" height="94" rx="3" transform="translate(1249 780)" fill="#52d1bb"/>
    <rect id="Rectangle_39" data-name="Rectangle 39" width="342" height="94" rx="3" transform="translate(1249 669)" fill="#52d1bb"/>
    <rect id="Rectangle_40" data-name="Rectangle 40" width="159" height="94" rx="3" transform="translate(1432 780)" fill="#9ce5d8"/>
    <rect id="Rectangle_30" data-name="Rectangle 30" width="119" height="72" rx="3" transform="translate(1659 752)" fill="#9ce5d8"/>
    <rect id="Rectangle_44" data-name="Rectangle 44" width="119" height="21" rx="3" transform="translate(1659 916)" fill="#8dcfc3"/>
    <rect id="Rectangle_42" data-name="Rectangle 42" width="54" height="72" rx="3" transform="translate(1724 834)" fill="#9ce5d8"/>
    <rect id="Rectangle_43" data-name="Rectangle 43" width="54" height="72" rx="3" transform="translate(1662 834)" fill="#9ce5d8"/>
    <g id="v-arm" transform="translate(-9 129)">
      <path id="h-arm" d="M11.132,3.048C-2.539,15.179.23,26.1.23,76.932S14,113.038,14,113.038l8.237-1.135s-4.043-83.84,6.525-88.576S24.8-9.082,11.132,3.048Z" transform="translate(1401.246 403.487) rotate(41)" fill="#1e90b4"/>
      <path id="Path_10" data-name="Path 10" d="M21.473,3.43S0,7.709,0,10.826,21.473,15.9,21.473,15.9s7.236-2.76,1.456,3.271,1.173,5.7,3.8,2.961,5.252-9.522,5.252-9.522L24.1,0Z" transform="matrix(0.906, -0.423, 0.423, 0.906, 1307.653, 504.718)" fill="#ffb9a3"/>
      <path id="Path_53" data-name="Path 53" d="M.21,6.975c-1.058,3.506,2.176,11.145,3.179,13.4s5.691-.246,4.634-3.752S8.823,0,8.823,0,1.268,3.468.21,6.975Z" transform="translate(1325.425 491.318) rotate(-43)" fill="#2aacd5"/>
    </g>
    <g id="h-arm-2" data-name="h-arm" transform="translate(-9 129)">
      <path id="h-arm-3" data-name="h-arm" d="M4.391,6.725C18.712-4.631,28.986-.008,79.046,8.819s33.167,19.828,33.167,19.828l-2.548,7.915S27.8,18.021,21.3,27.607-9.929,18.082,4.391,6.725Z" transform="translate(1427.267 403.902) rotate(39)" fill="#1e90b4"/>
      <path id="Path_63" data-name="Path 63" d="M3.834,19.873S11.777-.531,14.847.011s1.269,22.028,1.269,22.028-3.975,6.647,2.969,2S24.5,26.187,21.341,28.3s-10.29,3.518-10.29,3.518L0,21.865Z" transform="matrix(-0.259, 0.966, -0.966, -0.259, 1523.321, 496.594)" fill="#ffb9a3"/>
      <path id="Path_62" data-name="Path 62" d="M8.364.029C12-.4,18.962,4.107,21.009,5.487s-1.23,5.562-4.5,3.912S0,7.3,0,7.3,4.727.462,8.364.029Z" transform="matrix(-0.545, 0.839, -0.839, -0.545, 1507.141, 486.878)" fill="#2aacd5"/>
    </g>
    <path id="Path_61" data-name="Path 61" d="M7628.579,422.557c2.392-5.965,24.617-6.788,27.654,0s-6.263,0-13.176,0S7626.188,428.522,7628.579,422.557Z" transform="translate(-6237.431 99.9)" fill="#785449"/>
  </g>
</svg>
